# xmcd
#
# Track frame offsets: 
#        150
#        13651
#        25617
#        36412
#        47806
#        60428
#        72626
#        84557
#        95537
#        107551
#        119786
#        131712
#        144374
#        156886
#        169859
#        182660
#        194715
#        208400
#        221931
#        234580
#        248744
#        260605
#        272889
#        284795
#        294773
#
# Disc length: 4068 seconds
#
# Revision: 1
# Processed by: cddbd v1.5.2PL0 Copyright (c) Steve Scherf et al.
# Submitted via: ExactAudioCopy v0.99pb5
#
DISCID=900fe219
DTITLE=Various Artist - Downhome Blues Classics, Texas - CD1 (Lightnin' Hopki
DTITLE=ns)
DYEAR=2005
DGENRE=Blues
TTITLE0=Lightnin' Hopkins - Katie Mae Blues (1946)
TTITLE1=Lightnin' Hopkins - Feel So Bad (1946)
TTITLE2=Lightnin' Hopkins - Short Haired Woman (1947)
TTITLE3=Lightnin' Hopkins - Let Me Play With Your Poodle (1947)
TTITLE4=Lightnin' Hopkins - Picture On The Wall (1947)
TTITLE5=Lightnin' Hopkins - Sugar Mama (1947)
TTITLE6=Lightnin' Hopkins - Someday Baby (1948)
TTITLE7=Lightnin' Hopkins - Abilene (1948)
TTITLE8=Lightnin' Hopkins - Shotgun (1948)
TTITLE9=Lightnin' Hopkins - Lonesome Home (1948)
TTITLE10=Lightnin' Hopkins - Tim Moore's Farm (1948)
TTITLE11=Lightnin' Hopkins - Lightnin's Boogie (1948)
TTITLE12=Lightnin' Hopkins - Automobile (1948)
TTITLE13=Lightnin' Hopkins - Jake Head Boogie (1948)
TTITLE14=Lightnin' Hopkins - One Kind Favor (1949)
TTITLE15=Lightnin' Hopkins - Gotta Move (1949)
TTITLE16=Lightnin' Hopkins - Long Way From Texas (1951)
TTITLE17=Lightnin' Hopkins - Dirty House (1951)
TTITLE18=Lightnin' Hopkins - Freight Train Blues (1952)
TTITLE19=Lightnin' Hopkins - Sad News From Korea (1951)
TTITLE20=Lightnin' Hopkins - Gone With The Wind (1951)
TTITLE21=Lightnin' Hopkins - Sittin' Down Thinkin' (1951)
TTITLE22=Lightnin' Hopkins - Don't Think 'Cause You're Pretty (1951)
TTITLE23=Lightnin' Hopkins - Sick Feeling Blues (1951)
TTITLE24=Lightnin' Hopkins - Had A Gal Called Sal (1951)
EXTD=YEAR: 2005
EXTT0=
EXTT1=
EXTT2=
EXTT3=
EXTT4=
EXTT5=
EXTT6=
EXTT7=
EXTT8=
EXTT9=
EXTT10=
EXTT11=
EXTT12=
EXTT13=
EXTT14=
EXTT15=
EXTT16=
EXTT17=
EXTT18=
EXTT19=
EXTT20=
EXTT21=
EXTT22=
EXTT23=
EXTT24=
PLAYORDER=
